<svg width="58" height="58" viewBox="0 0 58 58" fill="none" xmlns="http://www.w3.org/2000/svg">
<path d="M25.7375 32.5344C25.3168 34.0184 25.2462 35.5799 25.5314 37.0958C25.8165 38.6118 26.4495 40.0409 27.3807 41.2707C28.3118 42.5005 29.5156 43.4974 30.8974 44.183C32.2792 44.8686 33.8012 45.2243 35.3437 45.2219H40.6906L48.9375 53.4688V44.8594C51.2655 44.214 53.28 42.7451 54.6063 40.7259C55.9326 38.7066 56.4805 36.2745 56.1482 33.8816C55.8159 31.4887 54.6259 29.2979 52.7995 27.7166C50.9731 26.1352 48.6346 25.2709 46.2187 25.2844H45.5844" stroke="#E8604C" stroke-width="2" stroke-linecap="round" stroke-linejoin="round"/>
<path d="M33.5313 5.34687H15.4063C12.2183 5.37161 9.14051 6.516 6.71082 8.57999C4.28113 10.644 2.65415 13.4963 2.11429 16.6383C1.57443 19.7802 2.15604 23.012 3.75744 25.7686C5.35885 28.5252 7.87817 30.6313 10.875 31.7188V42.5031L20.8438 32.5344H33.5313C37.1365 32.5344 40.5942 31.1022 43.1435 28.5529C45.6928 26.0035 47.125 22.5459 47.125 18.9406C47.125 15.3353 45.6928 11.8777 43.1435 9.32839C40.5942 6.77907 37.1365 5.34687 33.5313 5.34687V5.34687Z" stroke="#E8604C" stroke-width="2" stroke-linecap="round" stroke-linejoin="round"/>
</svg>
